<svg width="50" height="50" viewBox="0 0 50 50" fill="none" xmlns="http://www.w3.org/2000/svg">
<path fill-rule="evenodd" clip-rule="evenodd" d="M45.8333 5.13872H44.7917V4.1202C44.7917 3.55773 44.3258 3.10168 43.75 3.10168C43.1742 3.10168 42.7083 3.55773 42.7083 4.1202V5.13872H41.6667C41.0909 5.13872 40.625 5.59477 40.625 6.15724C40.625 6.71971 41.0909 7.17576 41.6667 7.17576H42.7083V8.19428C42.7083 8.75675 43.1742 9.2128 43.75 9.2128C44.3258 9.2128 44.7917 8.75675 44.7917 8.19428V7.17576H45.8333C46.4091 7.17576 46.875 6.71971 46.875 6.15724C46.875 5.59477 46.4091 5.13872 45.8333 5.13872ZM8.33333 43.8425C8.90859 43.8425 9.375 43.387 9.375 42.824C9.375 42.261 8.90859 41.8055 8.33333 41.8055H7.29167V40.787C7.29167 40.224 6.82526 39.7685 6.25 39.7685C5.67474 39.7685 5.20833 40.224 5.20833 40.787V41.8055H4.16667C3.59141 41.8055 3.125 42.261 3.125 42.824C3.125 43.387 3.59141 43.8425 4.16667 43.8425H5.20833V44.8611C5.20833 45.424 5.67474 45.8796 6.25 45.8796C6.82526 45.8796 7.29167 45.424 7.29167 44.8611V43.8425H8.33333ZM13.5417 46.8981C13.5417 47.4606 13.0753 47.9166 12.5 47.9166C11.9247 47.9166 11.4583 47.4606 11.4583 46.8981C11.4583 46.3356 11.9247 45.8796 12.5 45.8796C13.0753 45.8796 13.5417 46.3356 13.5417 46.8981ZM40.4552 15.0598C40.7822 15.1055 41.0421 15.3514 41.0995 15.6694C43.3224 27.9859 36.6033 38.3861 26.3735 42.7762C25.8572 42.9978 25.0694 42.3789 25.0694 41.8054L25 9.21283C25 8.5474 25.8923 8.07835 26.3735 8.54888C29.4183 11.5261 35.435 14.3586 40.4552 15.0598Z" fill="#FF5A5F"/>
<path d="M25 13.7964L34.375 21.4353V26.5279C34.375 30.9124 34.375 33.3665 34.375 33.8903C34.375 34.4141 34.0278 34.676 33.3333 34.676C22.9167 34.676 17.3611 34.676 16.6667 34.676C15.9722 34.676 15.625 34.4141 15.625 33.8903V21.4353L25 13.7964Z" fill="white"/>
<path fill-rule="evenodd" clip-rule="evenodd" d="M25 47.9166C24.8617 47.9166 24.7228 47.8898 24.5926 47.8351C8.45744 41.1331 1.94194 29.2739 5.22715 12.5853C5.31209 12.1546 5.66915 11.8254 6.1142 11.7682C13.7243 10.7889 19.8079 7.6553 24.1964 2.45379C24.5921 1.98432 25.4079 1.98432 25.8036 2.45379C30.1921 7.6553 36.2762 10.7889 43.8863 11.7682C44.3309 11.8254 44.6879 12.1546 44.7734 12.5853C48.0581 29.2739 41.5415 41.1331 25.4074 47.8351C25.2772 47.8898 25.1383 47.9166 25 47.9166ZM7.13807 13.6835C4.36199 28.9916 10.2107 39.502 25 45.7892C39.7888 39.502 45.638 28.9916 42.8619 13.6835C35.5082 12.5938 29.5085 9.56313 25 4.66201C20.4926 9.56313 14.4923 12.5938 7.13807 13.6835ZM32.2917 18.3648L37.6424 22.6868C38.086 23.0448 38.149 23.6869 37.7818 24.1205C37.5763 24.3647 37.2783 24.4905 36.9782 24.4905C36.7452 24.4905 36.5102 24.414 36.3159 24.2573L35.4167 23.531V34.1665C35.4167 35.0089 34.7158 35.6942 33.8542 35.6942H16.1459C15.2842 35.6942 14.5834 35.0089 14.5834 34.1665V23.531L13.6841 24.2573C13.2416 24.6164 12.5845 24.5557 12.2177 24.1205C11.8515 23.6869 11.9141 23.0448 12.3576 22.6868L24.3368 13.0108C24.7213 12.6995 25.2787 12.6995 25.6633 13.0108L30.2084 16.682V14.8146C30.2084 14.2521 30.6743 13.7961 31.25 13.7961C31.8258 13.7961 32.2917 14.2521 32.2917 14.8146V18.3648ZM33.3333 33.6572H29.1667V29.5831C29.1667 28.4581 28.2339 27.5461 27.0833 27.5461C25.9328 27.5461 25 28.4581 25 29.5831V33.6572H16.6667V21.8481L25 15.117L33.3333 21.8481V33.6572ZM22.9167 23.9815C22.9167 24.8253 22.2171 25.5093 21.3542 25.5093C20.4912 25.5093 19.7917 24.8253 19.7917 23.9815C19.7917 23.1378 20.4912 22.4538 21.3542 22.4538C22.2171 22.4538 22.9167 23.1378 22.9167 23.9815Z" fill="#484848"/>
</svg>
