<svg width="50" height="50" viewBox="0 0 50 50" fill="none" xmlns="http://www.w3.org/2000/svg">
<path fill-rule="evenodd" clip-rule="evenodd" d="M45.8333 5.13889H46.875C47.4508 5.13889 47.9167 5.59494 47.9167 6.15741C47.9167 6.71988 47.4508 7.17593 46.875 7.17593H45.8333V8.19445C45.8333 8.75692 45.3674 9.21296 44.7917 9.21296C44.2159 9.21296 43.75 8.75692 43.75 8.19445V7.17593H42.7083C42.1326 7.17593 41.6667 6.71988 41.6667 6.15741C41.6667 5.59494 42.1326 5.13889 42.7083 5.13889H43.75V4.12037C43.75 3.5579 44.2159 3.10185 44.7917 3.10185C45.3674 3.10185 45.8333 3.5579 45.8333 4.12037V5.13889ZM26.1111 41.8056C26.1111 42.3791 26.8989 42.9979 27.4151 42.7763C37.645 38.3862 44.364 27.9861 42.1411 15.6696C42.0838 15.3516 41.8238 15.1056 41.4969 15.06C36.4766 14.3587 30.46 11.5262 27.4151 8.54901C26.9339 8.07849 26.0417 8.54753 26.0417 9.21296L26.1111 41.8056ZM14.5833 46.8982C14.5833 47.4607 14.1169 47.9167 13.5417 47.9167C12.9664 47.9167 12.5 47.4607 12.5 46.8982C12.5 46.3356 12.9664 45.8796 13.5417 45.8796C14.1169 45.8796 14.5833 46.3356 14.5833 46.8982ZM9.37499 41.8056H8.33332V40.787C8.33332 40.2241 7.86691 39.7685 7.29166 39.7685C6.7164 39.7685 6.24999 40.2241 6.24999 40.787V41.8056H5.20832C4.63307 41.8056 4.16666 42.2611 4.16666 42.8241C4.16666 43.387 4.63307 43.8426 5.20832 43.8426H6.24999V44.8611C6.24999 45.4241 6.7164 45.8796 7.29166 45.8796C7.86691 45.8796 8.33332 45.4241 8.33332 44.8611V43.8426H9.37499C9.95025 43.8426 10.4167 43.387 10.4167 42.8241C10.4167 42.2611 9.95025 41.8056 9.37499 41.8056Z" fill="#60B6B5"/>
<path d="M29.6875 21.4352H35.9375V28.5648H29.6875V34.6759H22.3958V28.5648H16.1458V21.4352H22.3958V15.3241H29.6875V21.4352Z" fill="white"/>
<path fill-rule="evenodd" clip-rule="evenodd" d="M25.6342 47.8351C25.7645 47.8898 25.9033 47.9167 26.0417 47.9167C26.18 47.9167 26.3189 47.8898 26.4491 47.8351C42.5832 41.1332 49.0997 29.274 45.815 12.5853C45.7296 12.1546 45.3725 11.8254 44.928 11.7682C37.3179 10.789 31.2337 7.65534 26.8453 2.45384C26.4496 1.98436 25.6337 1.98436 25.238 2.45384C20.8496 7.65534 14.7659 10.789 7.15585 11.7682C6.71081 11.8254 6.35375 12.1546 6.26881 12.5853C2.98359 29.274 9.49909 41.1332 25.6342 47.8351ZM26.0417 45.7891C11.2523 39.5019 5.40364 28.9915 8.17972 13.6834C15.5339 12.5938 21.5342 9.56307 26.0417 4.66195C30.5501 9.56307 36.5499 12.5938 43.9036 13.6834C46.6797 28.9915 40.8305 39.5019 26.0417 45.7891ZM29.6875 35.6944H22.3958C21.8206 35.6944 21.3542 35.2389 21.3542 34.6759V29.5833H16.1458C15.5706 29.5833 15.1042 29.1278 15.1042 28.5648V21.4352C15.1042 20.8727 15.5706 20.4167 16.1458 20.4167H21.3542V15.3241C21.3542 14.7616 21.8206 14.3056 22.3958 14.3056H29.6875C30.2633 14.3056 30.7292 14.7616 30.7292 15.3241V20.4167H35.9375C36.5133 20.4167 36.9792 20.8727 36.9792 21.4352V28.5648C36.9792 29.1278 36.5133 29.5833 35.9375 29.5833H30.7292V34.6759C30.7292 35.2389 30.2633 35.6944 29.6875 35.6944ZM28.6458 33.6574H23.4375V28.5648C23.4375 28.0018 22.9711 27.5463 22.3958 27.5463H17.1875V22.4537H22.3958C22.9711 22.4537 23.4375 21.9977 23.4375 21.4352V16.3426H28.6458V21.4352C28.6458 21.9977 29.1117 22.4537 29.6875 22.4537H34.8958V27.5463H29.6875C29.1117 27.5463 28.6458 28.0018 28.6458 28.5648V33.6574Z" fill="#484848"/>
</svg>
