<svg width="50" height="50" viewBox="0 0 50 50" fill="none" xmlns="http://www.w3.org/2000/svg">
<path fill-rule="evenodd" clip-rule="evenodd" d="M43.75 5.13889H44.7917C45.3674 5.13889 45.8333 5.59494 45.8333 6.15741C45.8333 6.71988 45.3674 7.17593 44.7917 7.17593H43.75V8.19445C43.75 8.75692 43.2841 9.21296 42.7083 9.21296C42.1326 9.21296 41.6667 8.75692 41.6667 8.19445V7.17593H40.625C40.0492 7.17593 39.5833 6.71988 39.5833 6.15741C39.5833 5.59494 40.0492 5.13889 40.625 5.13889H41.6667V4.12037C41.6667 3.5579 42.1326 3.10185 42.7083 3.10185C43.2841 3.10185 43.75 3.5579 43.75 4.12037V5.13889ZM24.0278 41.8056C24.0278 42.3791 24.8155 42.9979 25.3318 42.7763C35.5616 38.3862 42.2807 27.9861 40.0578 15.6696C40.0004 15.3516 39.7405 15.1056 39.4136 15.06C34.3933 14.3587 28.3767 11.5262 25.3318 8.54901C24.8506 8.07849 23.9583 8.54753 23.9583 9.21296L24.0278 41.8056ZM6.25 41.8056H7.29166C7.86692 41.8056 8.33333 42.2611 8.33333 42.8241C8.33333 43.387 7.86692 43.8426 7.29166 43.8426H6.25V44.8611C6.25 45.4241 5.78358 45.8796 5.20833 45.8796C4.63307 45.8796 4.16666 45.4241 4.16666 44.8611V43.8426H3.12499C2.54974 43.8426 2.08333 43.387 2.08333 42.8241C2.08333 42.2611 2.54974 41.8056 3.12499 41.8056H4.16666V40.787C4.16666 40.2241 4.63307 39.7685 5.20833 39.7685C5.78358 39.7685 6.25 40.2241 6.25 40.787V41.8056ZM11.4583 47.9167C12.0336 47.9167 12.5 47.4607 12.5 46.8982C12.5 46.3356 12.0336 45.8796 11.4583 45.8796C10.883 45.8796 10.4167 46.3356 10.4167 46.8982C10.4167 47.4607 10.883 47.9167 11.4583 47.9167Z" fill="#FFB400"/>
<path fill-rule="evenodd" clip-rule="evenodd" d="M15.4845 18.4798C14.2278 21.1232 16.3956 26.434 18.8386 29.6759C21.2815 32.9178 25.8089 36.535 28.6764 35.9861C30.9705 35.5469 32.3322 34.1871 32.952 32.8913C33.2116 32.3485 33.1178 31.9184 32.6443 31.4712C32.0226 30.884 31.3558 30.3319 29.6751 28.88C29.0941 28.3781 28.7313 28.4235 28.1118 28.6603C27.2391 28.9938 25.9207 29.5202 25.659 29.6191C25.1012 29.8297 24.5429 29.6693 24.3179 29.359C24.1106 29.0729 21.9761 26.2649 20.6535 24.4961C20.2888 24.0084 20.4737 23.5079 20.7731 23.1352C20.9335 22.9357 21.684 21.907 22.3708 21.0418C22.9553 20.3055 22.8108 19.9907 22.5906 19.4785C21.6951 17.3955 21.3178 16.7158 20.9181 15.9101C20.6318 15.3327 20.172 15.1522 19.6379 15.2229C18.2474 15.4069 16.4676 16.4118 15.4845 18.4798Z" fill="white"/>
<path fill-rule="evenodd" clip-rule="evenodd" d="M20.8358 14.3913C21.2902 14.6179 21.6256 14.992 21.8513 15.4472C21.921 15.5876 21.9905 15.7253 22.0629 15.8685C22.4007 16.5372 22.7987 17.3251 23.5475 19.0671C23.554 19.082 23.5611 19.0982 23.5687 19.1157C23.6637 19.3326 23.8424 19.7407 23.8233 20.2178C23.801 20.7729 23.5376 21.2473 23.1867 21.6894C22.852 22.1111 22.4993 22.5757 22.2071 22.9643C22.1277 23.0698 22.0507 23.1725 21.979 23.2682C21.799 23.5084 21.6524 23.704 21.5851 23.7878C21.549 23.8327 21.5245 23.8712 21.5092 23.901C22.2349 24.8713 23.2145 26.1671 23.9789 27.1783C24.5108 27.8819 24.9386 28.4477 25.1041 28.6701C25.1452 28.6761 25.2113 28.6747 25.291 28.6446C25.4069 28.6008 25.6675 28.498 25.9981 28.3675C26.5041 28.1678 27.1741 27.9035 27.7399 27.6872C28.0607 27.5647 28.5028 27.4106 29.0018 27.4557C29.5406 27.5045 29.9755 27.7629 30.3561 28.0917C30.8131 28.4865 31.1974 28.8166 31.5278 29.1005C32.3964 29.8467 32.893 30.2732 33.3595 30.7139C33.6863 31.0225 33.981 31.4174 34.091 31.9245C34.2038 32.444 34.0897 32.9267 33.8917 33.3407C33.1372 34.9182 31.5092 36.5044 28.8723 37.0091C27.9058 37.1942 26.8851 37.016 25.9193 36.6673C24.945 36.3156 23.9533 35.7641 23.006 35.1095C21.1141 33.802 19.2917 32.0081 18.0066 30.3027C16.72 28.5953 15.5134 26.3576 14.7863 24.1838C14.4221 23.0953 14.1683 21.9934 14.0958 20.9615C14.0239 19.9384 14.1253 18.9127 14.5437 18.0325C15.6827 15.6367 17.7709 14.4192 19.5012 14.1902C19.9198 14.1348 20.3885 14.1682 20.8358 14.3913ZM19.9058 16.2557C19.8957 16.2526 19.8578 16.2445 19.7745 16.2555C18.7239 16.3946 17.2525 17.1869 16.4253 18.927C16.2154 19.3685 16.1165 19.9979 16.174 20.8154C16.2308 21.6241 16.4359 22.5482 16.762 23.5229C17.4153 25.4759 18.5142 27.5145 19.6705 29.049C20.8283 30.5855 22.4911 32.2212 24.1905 33.3956C25.0388 33.9819 25.8693 34.4344 26.6267 34.7078C27.3927 34.9843 28.0133 35.0524 28.4806 34.963C30.4318 34.5894 31.5272 33.4559 32.0123 32.4418C32.0304 32.4039 32.0404 32.3765 32.0459 32.3588C32.0294 32.3343 31.9953 32.291 31.9291 32.2285C31.5005 31.8237 31.055 31.441 30.213 30.7177C29.8777 30.4296 29.4794 30.0874 28.9942 29.6683C28.8931 29.581 28.8336 29.5454 28.8068 29.5322C28.7982 29.5334 28.7853 29.5356 28.7674 29.5397C28.7084 29.5532 28.623 29.58 28.4836 29.6333C27.9861 29.8234 27.2596 30.1095 26.7199 30.3221C26.3811 30.4556 26.1158 30.56 26.027 30.5935C25.1553 30.9228 24.0468 30.7598 23.4745 29.9704C23.3868 29.8493 22.9412 29.2601 22.3555 28.4854C21.5877 27.4699 20.5789 26.1358 19.8192 25.1199C19.4645 24.6455 19.3533 24.1116 19.4362 23.6043C19.5131 23.1347 19.744 22.753 19.9612 22.4827C20.0053 22.4277 20.1118 22.2856 20.2693 22.0756C20.348 21.9706 20.4394 21.8486 20.5421 21.712C20.8369 21.32 21.2029 20.8378 21.555 20.3942C21.6627 20.2584 21.7115 20.1745 21.7324 20.1318C21.7161 20.0831 21.6897 20.0204 21.6336 19.8898C20.9106 18.208 20.5367 17.4678 20.2025 16.8063C20.1292 16.6611 20.0577 16.5197 19.985 16.3729C19.9531 16.3086 19.9273 16.2773 19.9155 16.2648M19.9087 16.2568C19.9087 16.2568 19.9081 16.2566 19.9069 16.256L19.9087 16.2568ZM21.7469 20.0971C21.747 20.097 21.7467 20.0984 21.7457 20.1012L21.7469 20.0971ZM28.7896 29.5254C28.7895 29.5251 28.7922 29.5257 28.7977 29.528C28.7925 29.5268 28.7897 29.5256 28.7896 29.5254ZM32.0601 32.383C32.0601 32.383 32.0597 32.3823 32.0592 32.3809L32.0601 32.383Z" fill="#484848"/>
<path fill-rule="evenodd" clip-rule="evenodd" d="M23.5509 47.8351C23.6811 47.8898 23.82 47.9167 23.9583 47.9167C24.0967 47.9167 24.2355 47.8898 24.3657 47.8351C40.4999 41.1332 47.0164 29.274 43.7317 12.5853C43.6462 12.1546 43.2892 11.8254 42.8446 11.7682C35.2346 10.789 29.1504 7.65534 24.762 2.45384C24.3662 1.98436 23.5504 1.98436 23.1547 2.45384C18.7663 7.65534 12.6826 10.789 5.07253 11.7682C4.62748 11.8254 4.27042 12.1546 4.18548 12.5853C0.900264 29.274 7.41577 41.1332 23.5509 47.8351ZM23.9583 45.7891C9.169 39.5019 3.32031 28.9915 6.09639 13.6834C13.4506 12.5938 19.4509 9.56307 23.9583 4.66195C28.4668 9.56307 34.4665 12.5938 41.8203 13.6834C44.5963 28.9915 38.7471 39.5019 23.9583 45.7891Z" fill="#484848"/>
</svg>
